<svg xmlns="http://www.w3.org/2000/svg">
    <symbol id="icon-bamboo" x="0px" y="0px"  viewBox="0 0 1000 1000" enable-background="new 0 0 1000 1000" xml:space="preserve">

    <g>
        <path d="M611,316.8c-7.6-60.8-6.8-268.3,0-306.8H519c3,66.7,12.4,233,0,306.8H611z"/>
        <path d="M519,346.6c3,66.6,12.4,233,0,306.8H611c-7.6-60.8-6.8-268.2,0-306.8H519z"/>
        <path d="M519,683.2c3,66.6,12.4,233,0,306.8H611c-7.6-60.8-6.8-268.3,0-306.8H519z"/>
        <path d="M365.1,427.3c3,49.2,12.3,171.7,0,226.1h92.1c-7.6-44.8-6.8-197.6,0-226.1H365.1L365.1,427.3z"/>
        <path d="M365.1,683.2c3,66.6,12.3,233,0,306.8h92.1c-7.6-60.8-6.8-268.3,0-306.8H365.1z"/>
        <path d="M524,330l-2.8-7.4c-73.8-33.4-122.5-66.8-149.7-88.1c8.1-7.5,36.4-35.9,45.1-75.6c10.1-46.5,1.4-144.8,1.4-144.8s-49.1,85.6-59.2,132c-8.1,36.8,3,71.6,8,84.6c-11.9-9.6-18.5-15.7-20.5-17.7c-4.7-20-17.2-59.1-47.4-89.3c-42.1-42.2-151.8-99.4-151.8-99.4s57.3,109.7,99.4,151.8c34.5,34.5,80.6,45.9,96.4,49c6.4,6,18.4,16.3,37.3,30c-16-4.9-36.4-8.8-58.4-6.1c-47.2,5.7-137,46.7-137,46.7s97.1,17.9,144.3,12c36.4-4.5,65.2-25.7,76.5-35.2c27.8,18,64.3,39,110.9,60l2.3,0.5L524,330L524,330z"/>
        <path d="M370.5,668.9l-4.5-6.4c-65.2-11.3-120.3-42.4-156.3-67.3c6.6-10.1,18.4-31.4,19-56.5c0.8-35.1-19.2-105.1-19.2-105.1s-23.6,68.9-24.5,104c-0.5,19.3,5.6,36.4,11.2,48.2c-18.6-13.8-29.8-24.2-30.1-24.4l-0.4-0.1c-4.3-15.7-13.8-41.1-33.8-61.1c-31-31.1-112-73.3-112-73.3s42.3,80.9,73.4,112c25.6,25.7,60,34,71.4,36.2c11.2,9.6,36.9,30.2,72.2,50.5c-11.5-5.1-33.2-12.6-57.1-9.7c-34.8,4.3-101.1,34.5-101.1,34.5s71.7,13.2,106.5,8.9c33.6-4.1,58.1-27.4,59.7-28.9c33.1,18.2,73.8,35.4,119,43.2l0.9,0.1L370.5,668.9L370.5,668.9z"/>
        <path d="M727.7,614.1c34.2-22.9,53.2-40.7,57.9-45.3c17.1-3.5,61.5-15.2,95-48.7c42.1-42.2,99.4-151.8,99.4-151.8s-109.7,57.3-151.8,99.4c-31.1,31.1-43.5,72-47.9,91.3l-0.9,0.4c-0.3,0.3-14.5,14.7-42.6,35c8.4-15.3,20.4-42.7,19.6-74.2c-1.1-47.5-33.1-140.9-33.1-140.9s-27.1,94.8-25.9,142.4c0.9,37.7,20.1,68.9,28.2,80.3c-28,19.1-66.4,41.8-116.5,62.5l-3,7.3l5.1,3.4l2.1-0.4c35.1-14.5,64-29.8,88.3-44.3c10.3,8.9,39.7,31.4,77.5,36.1c47.2,5.9,144.3-12,144.3-12s-89.8-40.9-137-46.7C764.3,605.3,743.7,609.2,727.7,614.1L727.7,614.1z"/>
    </g>
    </symbol>
</svg>